<svg width="18" height="18" viewBox="0 0 20 20" fill="none" xmlns="http://www.w3.org/2000/svg">
  <g clip-path="url(#clip0_3416_2739)">
    <path fill-rule="evenodd" clip-rule="evenodd"
      d="M2.00008 3.39804C2.00008 2.84638 2.00008 2.57056 2.10704 2.34855C2.20131 2.1529 2.35292 1.98708 2.5438 1.87083C2.7604 1.73893 3.04838 1.69977 3.62433 1.62147L11.8384 0.504664C12.584 0.403292 12.9568 0.352605 13.2465 0.459625C13.5008 0.553571 13.713 0.727992 13.8472 0.95333C14.0001 1.21003 14.0001 1.56709 14.0001 2.28123V17.7188C14.0001 18.433 14.0001 18.79 13.8472 19.0467C13.713 19.2721 13.5008 19.4465 13.2465 19.5404C12.9568 19.6474 12.584 19.5968 11.8385 19.4954L11.8384 19.4954L11.8384 19.4954L3.62433 18.3786C3.04838 18.3003 2.7604 18.2611 2.5438 18.1292C2.35292 18.013 2.20131 17.8471 2.10704 17.6515C2.00008 17.4295 2.00008 17.1537 2.00008 16.602V3.39804ZM10.8001 8.60316C10.8001 8.43518 10.8001 8.35118 10.8283 8.28479C10.8531 8.22632 10.893 8.17747 10.9427 8.14447C10.9992 8.107 11.074 8.0994 11.2234 8.08419L11.8925 8.01609C12.0685 7.99817 12.1566 7.98921 12.2245 8.02208C12.2842 8.05096 12.3336 8.10141 12.3647 8.16538C12.4001 8.23818 12.4001 8.33714 12.4001 8.53506V11.465C12.4001 11.6629 12.4001 11.7619 12.3647 11.8347C12.3336 11.8986 12.2842 11.9491 12.2245 11.978C12.1566 12.0108 12.0685 12.0019 11.8925 11.984L11.2234 11.9159C11.074 11.9007 10.9992 11.893 10.9427 11.8556C10.893 11.8226 10.8531 11.7737 10.8283 11.7153C10.8001 11.6489 10.8001 11.5649 10.8001 11.3969V8.60316ZM16.2579 2.40002H15.2001V18H16.2579C16.8677 18 17.1726 18 17.4055 17.881C17.6104 17.7763 17.777 17.6093 17.8814 17.4038C18.0001 17.1702 18.0001 16.8644 18.0001 16.2528V4.14722C18.0001 3.53565 18.0001 3.22986 17.8814 2.99627C17.777 2.79079 17.6104 2.62374 17.4055 2.51905C17.1726 2.40002 16.8677 2.40002 16.2579 2.40002Z"
      fill="white" />
  </g>
  <defs>
    <clipPath id="clip0_3416_2739">
      <rect width="16" height="19.2" fill="white" transform="translate(2.00008 0.400024)" />
    </clipPath>
  </defs>
</svg>
